<svg xmlns="http://www.w3.org/2000/svg" width="1600" height="900" viewBox="0 0 1600 900" role="img" aria-label="Earthquake theme cover icon">
  <defs>
    <linearGradient id="cover-bg" x1="0" y1="0" x2="1" y2="1">
      <stop offset="0" stop-color="#eff6ff"/>
      <stop offset="0.5" stop-color="#ecfeff"/>
      <stop offset="1" stop-color="#f8fafc"/>
    </linearGradient>
    <linearGradient id="icon-bg" x1="0.1" y1="0.1" x2="0.9" y2="0.9">
      <stop offset="0" stop-color="#2563eb"/>
      <stop offset="0.55" stop-color="#0891b2"/>
      <stop offset="1" stop-color="#0f172a"/>
    </linearGradient>
    <filter id="soft-shadow" x="-30%" y="-30%" width="160%" height="160%">
      <feDropShadow dx="0" dy="24" stdDeviation="28" flood-color="#0f172a" flood-opacity="0.18"/>
    </filter>
  </defs>
  <rect width="1600" height="900" rx="96" fill="url(#cover-bg)"/>
  <path d="M0 620c178-88 308-70 474-8 152 56 296 71 482-12 221-98 390-76 644 42v258H0Z" fill="#dbeafe" opacity="0.52"/>
  <path d="M0 705c216-82 376-56 548 12 169 67 299 50 484-28 190-80 360-67 568 20v191H0Z" fill="#bae6fd" opacity="0.48"/>
  <g filter="url(#soft-shadow)">
    <rect x="636" y="286" width="328" height="328" rx="86" fill="url(#icon-bg)"/>
    <path d="M724 464h82l-25 92 102-130h-83l25-82z" fill="#fff"/>
    <path d="M704 514c49 28 98 42 149 42 49 0 94-13 136-39" fill="none" stroke="#fff" stroke-width="22" stroke-linecap="round" opacity="0.42"/>
  </g>
</svg>
